<svg width="154" height="121" viewBox="0 0 154 121" fill="none" xmlns="http://www.w3.org/2000/svg">
  <defs>
    <linearGradient id="paint0_linear_64_33" x1="69.8815" y1="33.3034" x2="93.3815" y2="96.8034" gradientUnits="userSpaceOnUse">
      <stop stop-color="#D62677"/>
      <stop offset="1" stop-color="#FEA44C"/>
    </linearGradient>
    <linearGradient id="paint1_linear_64_33" x1="69.8815" y1="33.3034" x2="93.3815" y2="96.8034" gradientUnits="userSpaceOnUse">
      <stop stop-color="#D62677"/>
      <stop offset="1" stop-color="#FEA44C"/>
    </linearGradient>
    <linearGradient id="paint2_linear_64_33" x1="69.8815" y1="33.3034" x2="93.3815" y2="96.8034" gradientUnits="userSpaceOnUse">
      <stop stop-color="#D62677"/>
      <stop offset="1" stop-color="#FEA44C"/>
    </linearGradient>
  </defs>
  <path d="M8.58417 59.331C8.42402 59.2246 8.18379 59.0649 7.86348 58.8521C7.57178 58.5694 7.45455 58.3583 7.51179 58.2187C7.56902 58.0791 7.72691 58.042 7.98547 58.1073C8.29323 58.1519 8.482 58.1886 8.55179 58.2172C9.705 58.4863 10.8873 59.0323 12.0988 59.8551C13.3594 60.6574 14.5732 61.6238 15.7399 62.7545C16.9353 63.8153 18.0878 64.9808 19.1973 66.251C20.3069 67.5212 21.2871 68.7587 22.1381 69.9636C24.2347 72.9021 26.1877 75.8429 27.9971 78.7859C29.8557 81.7083 31.4849 84.8424 32.8846 88.188C32.9258 88.2864 33.0493 88.5816 33.2551 89.0736C33.5102 89.5451 33.5599 89.8711 33.4042 90.0519C33.2155 90.0152 32.9403 89.8413 32.5789 89.53C32.2666 89.1981 32.055 88.9687 31.944 88.8417C30.592 87.2683 29.1862 85.4283 27.7268 83.3217C26.2959 81.1453 24.9823 79.18 23.7859 77.4258C22.8731 76.0733 22.0159 74.7843 21.2141 73.5588C20.3917 72.2841 19.5408 71.0792 18.6612 69.9441C17.8308 68.7883 16.9266 67.6635 15.9486 66.5695C14.9992 65.4058 13.9308 64.234 12.7434 63.0542C12.5627 62.8986 12.2464 62.6262 11.7946 62.2371C11.3919 61.8274 10.9647 61.4281 10.5128 61.039C10.061 60.6499 9.6543 60.2997 9.29282 59.9884C8.91076 59.628 8.67454 59.4088 8.58417 59.331ZM49.176 106.607C48.5113 106.539 48.06 106.496 47.822 106.48C47.6046 106.513 47.1533 106.471 46.468 106.353C44.999 106.158 43.546 105.725 42.1091 105.055C40.6517 104.335 39.2515 103.475 37.9085 102.476C36.5655 101.477 35.2654 100.373 34.0083 99.1649C32.7797 97.8866 31.6353 96.6021 30.575 95.3114C29.8585 96.3627 28.8424 97.2503 27.5265 97.9743C26.2393 98.6285 25.0298 99.1923 23.8982 99.6657C22.4714 100.263 21.024 100.81 19.556 101.309C18.1372 101.787 16.7144 102.324 15.2876 102.921C14.9803 106.056 14.716 109.086 14.4946 112.012C14.3018 114.867 14.2933 117.473 14.4691 119.827C14.4896 119.876 14.5062 119.985 14.5188 120.153C14.5519 120.371 14.5193 120.5 14.4209 120.541C14.2733 120.603 14.1274 120.461 13.9833 120.117C13.8392 119.773 13.7466 119.551 13.7054 119.453C12.8821 117.485 12.4335 115.1 12.3596 112.298C12.3144 109.426 12.3882 106.562 12.581 103.707L11.4431 104.096C11.4361 104.908 11.4193 106.043 11.3927 107.499C11.4153 108.935 11.4585 110.42 11.5222 111.954C11.6352 113.468 11.7522 114.922 11.8732 116.317C12.0434 117.691 12.2829 118.747 12.5916 119.485C12.6534 119.633 12.6105 119.738 12.4629 119.799C12.2661 119.882 12.0567 119.796 11.8348 119.542C11.5923 119.238 11.3395 118.911 11.0764 118.558C10.8626 118.185 10.6487 117.812 10.4348 117.439C10.2495 116.996 10.126 116.701 10.0643 116.554C9.34383 114.831 8.81391 112.943 8.47451 110.888C8.11453 108.784 7.9742 106.79 8.05351 104.907L7.03234 105.161C7.04239 106.429 7.07703 107.686 7.13628 108.933C7.17495 110.131 7.2834 111.358 7.46163 112.613C7.5028 112.711 7.52966 112.844 7.54221 113.013C7.55477 113.181 7.50155 113.261 7.38256 113.253C7.20182 113.097 7.03539 112.907 6.88327 112.681C6.75976 112.386 6.65684 112.14 6.5745 111.943C5.70996 109.877 5.2453 107.73 5.18052 105.502C5.22068 104.907 5.36377 104.558 5.60977 104.455C6.51948 103.728 7.48066 103.123 8.49329 102.642C9.55513 102.14 10.6519 101.652 11.7835 101.179C14.2435 100.149 16.7613 99.3274 19.3368 98.7123C21.8918 98.0481 24.3746 97.2117 26.7855 96.203C27.9663 95.709 29.0076 95.1578 29.9092 94.5493L29.2676 93.4302C28.7882 93.8042 28.2389 94.1497 27.6199 94.4664C27.0501 94.7627 26.4945 95.024 25.9533 95.2504C24.0345 96.0532 21.9595 96.6901 19.7284 97.161C17.5465 97.6114 15.4075 97.957 13.3115 98.198C13.1719 98.1408 12.9442 98.1493 12.6284 98.2236C12.292 98.2487 12.093 98.1875 12.0312 98.0399C11.9901 97.9415 12.1068 97.8059 12.3814 97.6332C12.6354 97.4113 12.8117 97.2798 12.9101 97.2386C13.5783 96.9012 14.2322 96.5987 14.8718 96.3311C15.54 95.9938 16.2186 95.681 16.9074 95.3928C18.039 94.9193 19.1809 94.4705 20.3331 94.0463C21.4647 93.5728 22.621 93.0891 23.8018 92.5951C24.3922 92.3481 25.0072 92.0908 25.6468 91.8232C26.2864 91.5556 26.8911 91.2737 27.461 90.9774L26.9737 90.2274L26.0143 90.6288C23.6527 91.6168 21.1984 92.3835 18.6515 92.9287C16.1538 93.4534 13.7241 94.2097 11.3625 95.1978C9.34524 96.0417 7.65233 97.0391 6.28374 98.1898C4.96436 99.3199 3.87265 100.441 3.00863 101.555C2.19381 102.647 1.57579 103.657 1.15457 104.585C0.733355 105.513 0.436898 106.186 0.265199 106.605C0.187381 106.695 0.148473 106.74 0.148473 106.74C0.0992717 106.761 0.0540868 106.722 0.012918 106.624C-0.00766642 106.574 -0.00365038 106.515 0.0249661 106.445C0.190129 104.352 0.675602 102.473 1.48139 100.806C2.26658 99.09 3.47049 97.5457 5.09311 96.173C5.29541 91.4056 5.55721 86.6421 5.8785 81.8827C6.24898 77.1026 6.73845 72.3306 7.34691 67.5667C7.35495 67.4477 7.39159 67.2589 7.45686 67.0003C7.50154 66.6926 7.59768 66.5078 7.74529 66.4461C7.81507 66.4747 7.86026 66.5136 7.88084 66.5628L7.94259 66.7104C8.10727 67.104 8.20617 67.4095 8.23931 67.6269C8.97183 72.0033 9.19978 76.4173 8.92318 80.869C8.64657 85.3207 8.30018 89.7438 7.88401 94.1382L9.25536 93.4778C9.27945 93.1208 9.38086 92.3268 9.55958 91.0958C9.78751 89.8442 10.0297 88.5577 10.2863 87.2363C10.5714 85.8451 10.8343 84.6078 11.0747 83.5243C11.2946 82.3917 11.4784 81.7945 11.626 81.7328L11.7924 81.9233C11.8953 82.1693 11.9742 82.7723 12.0289 83.7322C12.0836 84.6921 12.12 85.7464 12.1381 86.8951C12.1562 88.0438 12.1537 89.1433 12.1306 90.1936C12.1361 91.1741 12.1371 91.8674 12.1336 92.2736C12.4288 92.1501 12.7343 92.0512 13.0501 91.9769C13.3453 91.8534 13.6405 91.7298 13.9357 91.6063C14.0803 89.4646 14.2432 87.2284 14.4244 84.8979C14.6343 82.4976 14.6862 80.1345 14.5803 77.8085C14.4743 75.4825 14.1121 73.2348 13.4935 71.0654C12.9242 68.8755 11.9224 66.8954 10.488 65.1252C10.5909 65.3712 10.7229 65.8941 10.8841 66.6938C11.0945 67.473 11.2762 68.322 11.4294 69.2407C11.5619 70.1103 11.6636 70.906 11.7344 71.628C11.7846 72.3007 11.7113 72.6783 11.5145 72.7606C11.3669 72.8224 11.2519 72.7548 11.1696 72.558C11.1364 72.3407 11.1096 72.2074 11.089 72.1581C10.5538 70.8789 10.1027 69.5934 9.73568 68.3017C9.39729 66.9401 8.9605 65.6197 8.4253 64.3405C7.70485 62.6184 6.73438 61.0588 5.51388 59.6616C5.4933 59.6124 5.33716 59.4465 5.04546 59.1638C4.73319 58.832 4.70005 58.6146 4.94605 58.5117C5.04446 58.4705 5.26812 58.5215 5.61705 58.6646C6.3149 58.9507 7.0602 59.4194 7.85294 60.0705C8.69488 60.7011 9.5185 61.4261 10.3238 62.2454C11.1085 63.0155 11.8686 63.796 12.6041 64.5867C13.3396 65.3774 13.9396 66.0514 14.404 66.6087C15.9287 68.4567 17.3408 70.3809 18.6401 72.381C19.968 74.3114 21.2324 76.2972 22.4334 78.3386C23.6629 80.3101 24.9027 82.3063 26.1528 84.327C27.403 86.3478 28.692 88.3233 30.0199 90.2537C31.3273 92.1349 32.6878 93.936 34.1016 95.657C35.5646 97.3575 37.1094 98.908 38.7361 100.309C40.3627 101.709 42.0609 102.936 43.8307 103.988C45.629 104.97 47.5275 105.707 49.5262 106.201C49.8751 106.344 50.0107 106.461 49.9329 106.551C49.9248 106.67 49.6726 106.689 49.176 106.607ZM46.4039 100.396C46.5766 100.671 46.6138 100.829 46.5154 100.87C46.3964 100.862 46.2322 100.815 46.0229 100.729C45.8627 100.622 45.6677 100.502 45.4377 100.367C45.257 100.211 45.1563 100.109 45.1357 100.059C43.0492 98.3886 41.1984 96.5903 39.5833 94.6644C37.9476 92.6894 36.4595 90.6526 35.119 88.554C33.7579 86.4062 32.446 84.2379 31.1834 82.0489C29.9493 79.7902 28.6312 77.5378 27.2289 75.2916C25.8553 72.9757 24.3484 70.6866 22.7082 68.4243C21.068 66.1621 19.1612 63.9536 16.9878 61.7988C16.8974 61.721 16.7516 61.5796 16.5502 61.3748C16.3489 61.17 16.2872 61.0224 16.365 60.932C16.4634 60.8908 16.6173 60.9132 16.8266 60.999L17.2453 61.1707C18.8629 61.9971 20.5325 63.2931 22.2541 65.0588C23.9756 66.8245 25.6605 68.779 27.3087 70.9223C28.957 73.0655 30.4719 75.2356 31.8536 77.4326C33.2844 79.609 34.4934 81.5313 35.4804 83.1996C37.0474 85.8394 38.7006 88.6165 40.4403 91.5309C42.1799 94.4453 43.9705 97.136 45.812 99.6031L46.4039 100.396ZM16.6423 90.8209C18.1308 90.3715 19.6051 89.9571 21.0651 89.5775C22.5742 89.1774 24.0628 88.728 25.5308 88.2295C23.8986 85.8483 22.3505 83.4608 20.8866 81.067C19.4226 78.6732 17.9626 76.22 16.5066 73.7072C16.9374 76.5332 17.0913 79.3884 16.9683 82.2727C16.8945 85.1364 16.7858 87.9858 16.6423 90.8209ZM51.0504 104.869C49.8811 104.838 48.8452 104.78 47.9425 104.695C47.0192 104.561 46.1326 104.239 45.2826 103.727C43.9727 102.945 42.8351 102.092 41.8696 101.166C40.9534 100.219 40.1418 99.3159 39.4349 98.4554C39.1719 98.103 38.8882 97.7014 38.584 97.2505C38.3289 96.7791 38.2506 96.5228 38.349 96.4816C38.5458 96.3993 38.9256 96.6162 39.4884 97.1323C40.0512 97.6484 40.5482 98.0764 40.9795 98.4163C42.3556 99.6327 43.9388 100.791 45.7292 101.892C47.4989 102.944 49.2538 103.684 50.9939 104.112C51.5316 104.292 51.7473 104.462 51.6408 104.622C51.5344 104.782 51.3376 104.865 51.0504 104.869ZM1.50553 108.948C1.50553 108.948 1.45633 108.968 1.35793 109.009L1.28413 109.04C1.22237 108.893 1.18522 108.735 1.17267 108.566C1.16011 108.398 1.14756 108.23 1.13501 108.062C1.17868 107.061 1.29039 106.291 1.47012 105.754C1.67846 105.146 2.09792 104.422 2.7285 103.58C3.097 103.079 3.6623 102.495 4.42441 101.829C5.18652 101.164 5.83818 100.718 6.37939 100.491C6.4778 100.45 6.61109 100.423 6.77928 100.411C6.97608 100.328 7.10536 100.361 7.16711 100.508C7.22887 100.656 7.0406 100.966 6.60231 101.439C6.21322 101.89 5.96546 102.196 5.85903 102.357C4.46283 104.27 3.44544 105.708 2.80683 106.669C2.16823 107.63 1.73446 108.389 1.50553 108.948Z" fill="url(#paint0_linear_64_33)"/>
  <path d="M64.0967 35.499C63.7146 35.1385 63.5728 34.9377 63.6712 34.8965C63.8188 34.8348 64.0425 34.8857 64.3422 35.0494C64.6213 35.1639 64.7958 35.2354 64.8656 35.264C65.6664 35.7962 66.5472 36.3816 67.5081 37.0202C68.4485 37.6096 69.4363 38.3815 70.4715 39.3359C71.5067 40.2903 72.5751 41.462 73.6766 42.8512C74.7576 44.1912 75.8636 45.8675 76.9947 47.8802C78.2986 50.1676 79.3461 52.5332 80.1373 54.9772C80.9572 57.3514 81.6644 59.8017 82.2588 62.328C82.2508 62.447 82.3045 62.7136 82.42 63.1278C82.5354 63.5419 82.5194 63.7799 82.3718 63.8417C82.2734 63.8828 82.1029 63.7518 81.8604 63.4486C81.5974 63.0961 81.4349 62.8461 81.3732 62.6985C81.0484 62.1985 80.6824 61.6 80.2752 60.9032C79.868 60.2063 79.4506 59.4849 79.0228 58.7388C78.6237 57.923 78.2451 57.1564 77.8872 56.439C77.5578 55.6517 77.2696 54.9629 77.0226 54.3725C76.9403 54.1757 76.7407 53.7678 76.4239 53.1488C76.1357 52.46 75.7818 51.683 75.3621 50.818C74.9423 49.953 74.4425 49.0347 73.8627 48.0633C73.3114 47.022 72.7458 46.0157 72.166 45.0442C72.9025 46.5282 73.5406 48.0535 74.0803 49.6199C74.62 51.1863 75.1454 52.7876 75.6565 54.4237C76.147 56.0107 76.6725 57.612 77.2327 59.2276C77.7725 60.794 78.4209 62.3438 79.178 63.8771C80.6018 66.8658 82.5136 69.7081 84.9135 72.4041C87.3133 75.1001 90.1572 77.0611 93.4451 78.2871C93.8638 78.4588 94.0486 78.555 93.9994 78.5756C93.9215 78.6659 93.7287 78.6888 93.421 78.6441C91.2873 78.3805 89.3664 77.7966 87.6584 76.8925C85.9505 75.9883 84.3878 74.8788 82.9705 73.5639C81.6024 72.2284 80.3859 70.7718 79.3211 69.1938C78.2356 67.5667 77.2978 65.8778 76.5076 64.1271C76.4458 63.9795 76.3698 63.8668 76.2794 63.789C76.2176 63.6414 76.1559 63.4938 76.0941 63.3462C76.2834 66.5623 76.3085 69.7315 76.1695 72.8538C76.0796 75.9554 75.9486 78.9587 75.7764 81.8636C75.6534 84.7479 75.5282 87.4886 75.4007 90.0857C75.3018 92.613 75.338 94.9104 75.5092 96.9778C75.5137 97.265 75.4913 97.4189 75.4421 97.4395C75.3437 97.4806 75.2637 97.4274 75.2019 97.2798C75.1402 97.1322 75.099 97.0338 75.0784 96.9846C74.1601 94.6516 73.6189 92.0452 73.4547 89.1654C73.27 86.2365 73.2019 83.1719 73.2506 79.9719C73.3279 76.702 73.4338 73.3624 73.5683 69.9529C73.6823 66.4943 73.6034 63.0585 73.3318 59.6456C73.1194 57.4797 72.7778 55.2812 72.3068 53.0501C71.8851 50.7984 71.2912 48.6188 70.525 46.5112C69.7589 44.4036 68.8411 42.4172 67.7717 40.5521C66.6818 38.6378 65.4568 36.9534 64.0967 35.499ZM91.033 74.1799C92.0476 75.0851 93.2036 75.8444 94.5009 76.4579C93.9808 74.2474 93.7907 71.9276 93.9308 69.4987C94.0503 67.0206 94.2927 64.491 94.6582 61.91C95.0729 59.3083 95.5368 56.6861 96.0499 54.0433C96.5629 51.4005 96.9673 48.7743 97.263 46.1646C97.5105 44.2689 97.5589 42.3119 97.4083 40.2936C97.3069 38.2548 96.9984 36.2737 96.4827 34.3504C95.9958 32.3572 95.2976 30.4813 94.3884 28.7226C93.5284 26.9434 92.4389 25.3757 91.12 24.0197C90.8695 23.8354 90.7729 23.6735 90.8301 23.5339C90.8873 23.3944 91.0658 23.4064 91.3655 23.5701C91.6939 23.664 91.9032 23.7498 91.9936 23.8276C92.934 24.417 93.8645 25.3285 94.7853 26.562C95.7347 27.7258 96.6331 29.1132 97.4806 30.7243C98.3567 32.2656 99.1755 33.9464 99.9371 35.7669C100.699 37.5873 101.387 39.4386 102.001 41.3208C102.812 43.814 103.545 46.6006 104.197 49.6807C104.899 52.7402 105.375 55.6051 105.625 58.2756C105.617 58.3945 105.611 58.6571 105.608 59.0633C105.654 59.4488 105.603 59.6725 105.455 59.7343C105.336 59.7262 105.18 59.5603 104.987 59.2365C104.773 58.8635 104.645 58.6277 104.604 58.5293C104.378 57.9881 104.11 57.3485 103.801 56.6105C103.521 55.8027 103.241 54.9949 102.961 54.1871C102.66 53.3301 102.38 52.5223 102.12 51.7637C101.889 50.9353 101.71 50.23 101.582 49.6476C101.508 49.3318 101.304 48.6367 100.97 47.5623C100.664 46.4181 100.283 45.1613 99.8257 43.7917C99.8117 45.4163 99.8589 46.8419 99.9673 48.0684C100.076 49.2949 100.223 50.4762 100.409 51.6124C100.596 52.7485 100.827 53.9235 101.104 55.1375C101.43 56.3309 101.838 57.7211 102.328 59.308C102.819 60.895 103.414 62.5249 104.114 64.1978C104.863 65.85 105.725 67.4262 106.699 68.9263C107.723 70.4058 108.859 71.8093 110.108 73.1367C111.386 74.3944 112.785 75.457 114.304 76.3245C114.624 76.5374 114.745 76.689 114.668 76.7794C114.59 76.8697 114.446 76.872 114.237 76.7861C112.127 76.1656 110.276 75.2637 108.682 74.0804C107.117 72.8272 105.743 71.4077 104.559 69.8217C103.375 68.2358 102.378 66.5428 101.567 64.743C100.785 62.8734 100.122 61.0118 99.5773 59.1582C99.4081 58.4774 99.2143 57.8069 98.9959 57.1467C98.8267 56.466 98.6472 55.7606 98.4574 55.0306C98.0874 57.3245 97.6969 59.5691 97.2857 61.7646C96.8745 63.9601 96.5372 66.1247 96.2736 68.2584C95.9894 70.3429 95.8037 72.3863 95.7163 74.3884C95.6576 76.3208 95.7711 78.1812 96.0568 79.9695C96.0613 80.2567 96.0635 80.4002 96.0635 80.4002C95.9651 80.4414 95.8748 80.3636 95.7924 80.1668C95.7101 79.97 95.6586 79.847 95.6381 79.7978C95.4734 79.4042 95.3087 79.0106 95.144 78.617C94.9794 78.2234 94.8639 77.8092 94.7976 77.3744C94.3217 77.3423 93.9052 77.3141 93.5483 77.2901C93.1707 77.2168 92.7829 77.1189 92.3848 76.9964C92.0358 76.8533 91.6417 76.6713 91.2024 76.4504C90.8123 76.2089 90.3565 75.8793 89.8348 75.4616C89.383 75.0725 88.89 74.585 88.3558 73.9991C87.8216 73.4132 87.3223 72.8417 86.8579 72.2844C86.4221 71.6573 86.087 71.1327 85.8525 70.7105C85.6467 70.2185 85.6176 69.9416 85.7652 69.8798C85.8636 69.8387 86.0031 69.8959 86.1839 70.0515C86.3932 70.1374 86.6232 70.2724 86.8737 70.4567C87.1242 70.6409 87.3501 70.8355 87.5515 71.0403C87.7528 71.2451 87.8986 71.3865 87.989 71.4643C88.482 71.9518 88.975 72.4393 89.4681 72.9268C89.9897 73.3445 90.5113 73.7622 91.033 74.1799ZM86.8706 59.8782C87.0679 57.3097 87.3207 54.8047 87.6289 52.3632C87.9658 49.852 88.2316 47.8619 88.4264 46.3929C88.7221 43.7832 89.0876 41.2021 89.5229 38.6497C89.9375 36.0481 90.2829 33.7645 90.559 31.799C90.5545 31.5118 90.5603 31.2492 90.5764 31.0112C90.6416 30.7527 90.744 30.652 90.8836 30.7093C90.982 30.6681 91.0581 30.7808 91.1118 31.0474C91.1655 31.314 91.2192 31.5806 91.273 31.8472C92.0662 35.6778 92.2113 39.5484 91.7083 43.4588C91.2545 47.3487 90.7125 51.3044 90.0825 55.3258C89.8465 56.6964 89.6123 57.864 89.3799 58.8284C89.176 59.7231 89.0214 60.5971 88.916 61.4506C88.8392 62.2343 88.8425 63.0712 88.9258 63.9614C89.0091 64.8515 89.2589 65.9322 89.6751 67.2034C89.6455 66.5798 89.6508 65.9706 89.6909 65.3756C89.7311 64.7807 89.7815 64.2104 89.8423 63.6647C90.2319 60.7267 90.7936 57.7166 91.5276 54.6345C92.2616 51.5524 93.0327 48.6282 93.841 45.8619C93.8983 45.7223 93.9881 45.4535 94.1106 45.0554C94.2617 44.5874 94.3968 44.3575 94.5158 44.3655C94.6348 44.3736 94.7028 44.6053 94.7199 45.0606C94.7861 45.4954 94.8358 45.8215 94.869 46.0389C94.8494 46.683 94.8075 47.481 94.7432 48.4329C94.7282 49.3642 94.6742 50.3407 94.5813 51.3624C94.5171 52.3143 94.4282 53.2764 94.3148 54.2489C94.1807 55.1722 94.0444 55.9519 93.9059 56.588C93.8326 56.9655 93.6614 57.7309 93.3923 58.8841C93.1232 60.0373 92.8975 61.4325 92.7153 63.0697C92.533 64.7069 92.4229 66.5163 92.3847 68.4979C92.3958 70.4589 92.6202 72.4463 93.058 74.46C92.7869 74.2265 92.4357 73.9399 92.0044 73.6C91.6224 73.2395 91.0779 72.629 90.371 71.7685C88.1886 69.0394 86.3894 66.121 84.9736 63.0133C83.5865 59.8358 82.2176 56.5639 80.8671 53.1977C80.0311 51.0615 79.146 48.9458 78.2117 46.8508C77.3266 44.7351 76.0456 42.6406 74.3687 40.5671C74.2372 40.3909 74.1754 40.2433 74.1834 40.1243C74.2818 40.0832 74.4912 40.169 74.8115 40.3819C76.0882 40.9462 77.3288 42.0459 78.5332 43.6811C79.7171 45.267 80.8294 47.0275 81.8701 48.9624C82.8903 50.8481 83.8018 52.7504 84.6046 54.6692C85.436 56.5182 86.0884 58.0086 86.5619 59.1402L86.8706 59.8782ZM64.7746 61.578C64.5406 58.6696 64.3948 55.6955 64.337 52.6556C64.3285 49.5951 64.2855 46.8669 64.2082 44.4711C64.2037 44.184 64.1992 43.8968 64.1946 43.6096C64.2393 43.3019 64.3212 43.152 64.4401 43.16C64.5386 43.1189 64.6352 43.2808 64.7301 43.6458C64.8536 43.941 64.9668 44.2116 65.0697 44.4576C66.3148 48.6773 67.1068 53.0577 67.4458 57.5988C67.7847 62.1398 67.9554 66.6934 67.9579 71.2596C68.0031 74.1313 67.9848 77.0585 67.903 80.0412C67.8006 82.9747 67.9876 86.0472 68.4641 89.2588C68.4686 89.546 68.4812 89.7142 68.5017 89.7634C68.5715 89.792 68.5818 89.8166 68.5326 89.8372C68.3438 89.8006 68.1774 89.61 68.0333 89.2656C67.1698 87.8925 66.5455 85.9857 66.1604 83.5453C65.7547 81.0556 65.4761 78.455 65.3244 75.7434C65.1522 72.9826 65.0561 70.3345 65.036 67.7992C64.9953 65.2146 64.9082 63.1409 64.7746 61.578ZM68.9498 80.4704C69.0065 77.1514 69.1307 73.7173 69.3225 70.1683C69.4937 66.5701 69.6774 63.1401 69.8737 59.8783C69.8611 59.7101 69.8709 59.388 69.9031 58.9121C69.9844 58.4156 70.1337 58.1507 70.3511 58.1176C70.4495 58.0764 70.5668 58.2875 70.7028 58.7509C70.8389 59.2143 70.8989 59.565 70.8828 59.803C71.0234 60.5536 71.1765 61.4723 71.3422 62.5592C71.4873 63.597 71.6038 64.7045 71.6916 65.8818C71.8081 66.9893 71.9 68.1072 71.9673 69.2353C72.014 70.3142 72.0235 71.2352 71.9959 71.9983C71.9718 72.3553 71.9688 73.1081 71.9869 74.2568C72.0336 75.3357 72.0642 76.6526 72.0788 78.2074C72.1426 79.7417 72.1983 81.3949 72.246 83.1672C72.3223 84.8696 72.4027 86.5126 72.487 88.0961C72.5508 89.6303 72.6123 91.021 72.6715 92.2681C72.7594 93.4454 72.8714 94.2658 73.0074 94.7292C73.1149 95.2623 73.1194 95.5495 73.021 95.5907C72.9226 95.6319 72.8076 95.5643 72.6761 95.3881C72.5937 95.1913 72.5074 95.054 72.417 94.9762C71.924 94.4887 71.4408 93.6791 70.9673 92.5475C70.5431 91.3953 70.1864 90.1281 69.8972 88.746C69.608 87.3638 69.3577 85.9365 69.1463 84.464C68.9842 82.9709 68.9187 81.6397 68.9498 80.4704ZM110.28 55.7211C110.96 58.0381 111.493 60.4168 111.878 62.8572C112.312 65.2771 112.693 67.4304 113.02 69.3171C113.091 70.0391 113.066 70.396 112.947 70.388C112.849 70.4292 112.734 70.3616 112.603 70.1854C112.5 69.9394 112.372 69.7037 112.22 69.4783C110.447 66.3465 109.117 63.0295 108.23 59.5272C107.343 56.0248 106.474 52.4282 105.624 48.7371C105.153 46.506 104.587 44.2565 103.928 41.9888C103.247 39.6718 102.259 37.3102 100.964 34.9038C100.881 34.707 100.869 34.5388 100.926 34.3993C101.024 34.3581 101.104 34.4113 101.166 34.5589C101.257 34.6367 101.361 34.6797 101.48 34.6877C102.671 35.4614 103.717 36.787 104.618 38.6647C105.548 40.4726 106.371 42.4406 107.088 44.5688C107.805 46.697 108.418 48.7822 108.925 50.8246C109.482 52.8463 109.934 54.4785 110.28 55.7211ZM65.0531 41.5161C64.5225 40.524 63.9735 39.6263 63.4061 38.8231C62.888 37.9992 62.3104 37.1713 61.6733 36.3394C61.5829 36.2616 61.5069 36.1489 61.4451 36.0013C61.3834 35.8537 61.3771 35.7696 61.4263 35.749C61.5739 35.6873 61.7524 35.6993 61.9617 35.7852L62.3804 35.9569C63.2304 36.4684 63.982 37.0212 64.6352 37.6151C65.2677 38.1598 65.9729 39.2234 66.7506 40.8059C67.0674 41.4249 67.3967 42.2121 67.7386 43.1675C68.0805 44.1229 68.3526 45.0497 68.555 45.9479C68.8065 46.8255 68.9574 47.6006 69.0076 48.2734C69.107 48.9256 69.0726 49.2579 68.9044 49.2705C68.806 49.3116 68.6808 49.2195 68.5286 48.9941C68.3559 48.7195 68.1729 48.4202 67.9796 48.0964C67.8355 47.752 67.6915 47.4076 67.5474 47.0632C67.3827 46.6696 67.2695 46.399 67.2077 46.2514C66.8578 45.415 66.5284 44.6278 66.2197 43.8897C65.8903 43.1025 65.5015 42.3113 65.0531 41.5161ZM91.663 29.2558C91.2433 28.3908 90.795 27.5955 90.318 26.8701C89.8903 26.124 89.3784 25.3843 88.7825 24.6508C88.6921 24.573 88.5915 24.4705 88.4805 24.3435C88.4188 24.1959 88.4474 24.1261 88.5664 24.1342C88.7059 24.1914 88.8106 24.2343 88.8804 24.2629C88.9994 24.271 89.1184 24.279 89.2374 24.287L89.4467 24.3729C90.2761 24.8353 90.9722 25.3245 91.535 25.8406C92.147 26.3361 92.7864 27.3116 93.4531 28.7671C93.6795 29.3083 93.8939 30.028 94.0962 30.9261C94.3478 31.8037 94.5398 32.6773 94.6724 33.5468C94.8335 34.3466 94.9043 35.0686 94.8847 35.7127C94.8938 36.287 94.7793 36.5662 94.5413 36.5501C94.4223 36.5421 94.3114 36.4151 94.2085 36.169C94.085 35.8738 93.9615 35.5786 93.838 35.2834C93.6939 34.939 93.5847 34.6089 93.5104 34.2931C93.4361 33.9774 93.368 33.7457 93.3063 33.5981C93.0753 32.7697 92.8158 32.0111 92.5276 31.3223C92.2886 30.6129 92.0004 29.924 91.663 29.2558ZM112.525 71.8655C113.17 72.5784 113.809 73.2073 114.442 73.752C115.123 74.2761 115.805 74.8003 116.487 75.3244C116.557 75.353 116.647 75.4308 116.758 75.5578C116.848 75.6357 116.844 75.6952 116.746 75.7363C116.598 75.7981 116.465 75.8249 116.346 75.8169C116.276 75.7883 116.182 75.77 116.063 75.7619C115.944 75.7539 115.85 75.7356 115.78 75.707C114.865 75.4539 114.083 75.174 113.434 74.8673C112.785 74.5605 111.972 73.8602 110.994 72.7662C110.641 72.336 110.236 71.7827 109.779 71.1065C109.323 70.4302 108.926 69.7579 108.589 69.0897C108.251 68.4215 108.004 67.8311 107.848 67.3185C107.691 66.8059 107.711 66.5084 107.908 66.4261C107.957 66.4055 108.082 66.4976 108.284 66.7025C108.464 66.8581 108.641 67.0732 108.814 67.3478C109.015 67.5527 109.202 67.7924 109.375 68.067C109.576 68.2719 109.722 68.4132 109.812 68.491C110.347 69.0769 110.821 69.6588 111.236 70.2366C111.652 70.8145 112.081 71.3575 112.525 71.8655Z" fill="url(#paint1_linear_64_33)"/>
  <path d="M132.877 49.5624C132.874 49.9686 132.806 50.0835 132.674 49.9073C132.572 49.6613 132.524 49.4788 132.532 49.3598C132.074 47.2969 132.114 45.4589 132.653 43.8458C132.15 42.0906 131.754 40.1753 131.463 38.0998C131.202 35.9546 130.965 33.799 130.752 31.6332C130.54 29.4673 130.324 27.361 130.103 25.3141C129.912 23.1975 129.683 21.2696 129.418 19.5305C128.286 20.0039 127.173 20.383 126.078 20.6677C125.643 20.7339 125.426 20.7671 125.426 20.7671C125.315 20.64 125.415 20.3958 125.726 20.0343C127.234 18.2475 129.084 16.8664 131.277 15.8909C133.45 14.8662 135.685 13.9891 137.981 13.2596C139.449 12.761 140.907 12.2379 142.354 11.6901C143.802 11.1424 145.21 10.2932 146.578 9.14246C146.804 8.99033 146.947 8.98807 147.009 9.13567C147.05 9.23408 147.028 9.38796 146.942 9.59731C146.668 10.4633 146.161 11.2538 145.419 11.9688C144.706 12.6139 143.864 13.2264 142.893 13.8063C141.921 14.3862 140.894 14.9025 139.812 15.3554C138.779 15.7876 137.795 16.1993 136.86 16.5904C137.6 17.6683 138.275 19.0048 138.884 20.5998C139.473 22.1456 139.994 23.8064 140.448 25.5822C140.951 27.3373 141.356 29.1337 141.662 30.9712C142.018 32.7881 142.322 34.482 142.574 36.0529C144.547 35.5167 146.4 34.9725 148.135 34.4202C149.898 33.7982 151.304 32.8054 152.352 31.4418C152.479 31.3308 152.563 31.3245 152.605 31.4229C152.666 31.5706 152.693 31.7038 152.685 31.8228C152.294 33.3742 151.614 34.5834 150.647 35.4504C149.66 36.2683 148.541 36.9099 147.29 37.3753C146.019 37.7915 144.668 38.1545 143.236 38.4643C141.805 38.774 140.474 39.1862 139.244 39.7008C137.67 40.3595 136.242 41.5062 134.96 43.1409C133.707 44.7058 133.013 46.8463 132.877 49.5624ZM143.926 55.8664C143.461 54.6158 142.999 53.3057 142.542 51.9361C142.085 50.5665 141.711 49.1906 141.422 47.8085C141.205 47.8416 140.706 47.9633 139.927 48.1737C139.177 48.3143 138.447 48.5041 137.737 48.743C137.077 48.9614 136.7 49.2348 136.606 49.5631C136.541 49.8217 136.607 50.2565 136.805 50.8675C137.609 53.4796 138.747 55.9231 140.219 58.1979C141.691 60.4727 143.355 62.378 145.212 63.9137C145.372 64.0202 145.448 64.1329 145.44 64.2519C145.432 64.3708 145.323 64.3874 145.114 64.3016C142.667 63.0128 140.736 61.5079 139.323 59.7869C137.888 58.0167 136.648 56.0205 135.603 53.7985C135.142 52.835 134.958 51.8425 135.051 50.8208C135.193 49.7785 135.664 48.8302 136.462 47.9757C137.798 46.6076 139.298 45.6331 140.963 45.0522C142.628 44.4713 144.387 43.9088 146.24 43.3645C147.315 43.0307 148.438 42.6762 149.611 42.3012C150.812 41.8563 151.866 41.1266 152.771 40.1119C152.877 39.9518 152.966 39.886 153.035 39.9146C153.105 39.9433 153.136 40.0171 153.128 40.136C153.12 40.255 153.112 40.374 153.104 40.493C152.99 41.4655 152.563 42.3092 151.821 43.0241C151.129 43.7184 150.311 44.3207 149.369 44.8307C148.426 45.3408 147.452 45.7771 146.447 46.1396C145.492 46.4815 144.695 46.7863 144.055 47.0539C144.23 48.7151 144.339 50.2883 144.382 51.7734C144.425 53.2584 144.501 54.6142 144.609 55.8408C144.68 56.5627 144.656 56.9197 144.537 56.9116C144.418 56.9036 144.317 56.8012 144.235 56.6044C144.132 56.3584 144.029 56.1124 143.926 55.8664ZM121.933 22.5752C121.979 22.9608 121.922 23.1004 121.761 22.9939C121.63 22.8177 121.558 22.6455 121.545 22.4773C121.05 20.6032 120.939 18.8864 121.212 17.327C121.484 15.7677 122.007 14.3925 122.781 13.2017C123.534 11.9616 124.478 10.9018 125.613 10.0222C126.728 9.09336 127.915 8.33677 129.173 7.75237C130.875 6.98272 132.603 6.34636 134.358 5.8433C136.093 5.29103 137.778 4.75935 139.414 4.24825C141.1 3.71657 142.656 3.15225 144.083 2.55531C145.538 1.88857 146.813 1.06621 147.907 0.0882039C148.034 -0.0227499 148.118 -0.0290251 148.159 0.0693783L148.061 0.45721C147.255 2.12402 146.151 3.42409 144.75 4.35742C143.348 5.29074 141.8 6.08273 140.107 6.7334C138.442 7.31428 136.708 7.86655 134.903 8.3902C133.078 8.86464 131.35 9.501 129.718 10.2993C128.657 10.8013 127.632 11.4613 126.644 12.2791C125.657 13.097 124.805 14.0315 124.088 15.0828C123.351 16.0849 122.785 17.2181 122.389 18.4822C121.993 19.7464 121.841 21.1107 121.933 22.5752ZM142.174 10.6381C140.559 11.1984 138.779 11.7117 136.835 12.1782C134.94 12.624 133.123 12.9795 131.384 13.2445C131.286 13.2857 131.068 13.3189 130.732 13.344C130.445 13.3485 130.27 13.2769 130.209 13.1293C130.167 13.0309 130.235 12.916 130.411 12.7844C130.616 12.5831 130.768 12.4619 130.866 12.4207C131.169 12.1782 131.557 11.9294 132.028 11.6744C132.528 11.3495 133.038 11.0493 133.559 10.7737C134.129 10.4775 134.684 10.2162 135.226 9.98973C135.767 9.7633 136.234 9.56775 136.628 9.40307C137.386 9.14351 138.332 8.77701 139.463 8.30357C140.644 7.80954 141.804 7.26632 142.944 6.67389C144.063 6.03226 145.073 5.4072 145.975 4.79871C146.905 4.12043 147.559 3.47128 147.935 2.85124C148.078 2.50232 148.191 2.42625 148.273 2.62306C148.315 2.72146 148.307 2.84045 148.249 2.98002C148.241 3.099 148.233 3.21799 148.225 3.33698C148.12 4.19046 147.86 5.02161 147.447 5.83042C147.014 6.59002 146.51 7.32101 145.937 8.02339C145.343 8.67656 144.708 9.23133 144.031 9.68769C143.404 10.1235 142.785 10.4403 142.174 10.6381ZM149.357 41.28C148.037 41.7168 146.616 42.0512 145.094 42.2831C143.622 42.4945 142.153 42.6464 140.689 42.7387C140.639 42.7593 140.496 42.7616 140.258 42.7455C140.069 42.7089 139.944 42.6167 139.882 42.4691C139.841 42.3707 139.923 42.2209 140.128 42.0196C140.332 41.8182 140.548 41.6415 140.773 41.4894C141.125 41.2263 141.66 40.9158 142.378 40.5578C143.075 40.1507 143.763 39.8625 144.444 39.6933C145.273 39.4623 146.165 39.1759 147.12 38.834C148.055 38.4429 148.92 38.0232 149.715 37.5748C150.49 37.0773 151.16 36.5368 151.725 35.9535C152.29 35.3701 152.652 34.7849 152.812 34.198C152.799 34.0299 152.867 33.9149 153.014 33.8531L153.088 33.8222C153.178 33.9001 153.23 34.0231 153.242 34.1913C153.304 34.3389 153.331 34.4721 153.323 34.5911C153.379 36.2444 152.971 37.687 152.098 38.9191C151.226 40.1511 150.313 40.9381 149.357 41.28ZM135.239 31.5774C135.185 31.3108 135.116 30.7325 135.033 29.8423C134.978 28.8824 134.886 27.7646 134.757 26.4889C134.628 25.2132 134.433 23.8494 134.173 22.3974C133.962 20.9249 133.652 19.4936 133.244 18.1034L131.546 18.8135C132.449 22.0779 133.014 25.5704 133.241 29.2911C133.497 32.942 133.872 36.601 134.365 40.2679C134.676 39.9065 134.973 39.5799 135.256 39.2882C135.588 38.9759 135.93 38.6882 136.282 38.4251C136.076 37.2398 135.869 36.0545 135.662 34.8691C135.484 33.614 135.342 32.5168 135.239 31.5774ZM136.927 24.6273C137.25 26.9201 137.536 29.0551 137.785 31.0322C138.063 32.9395 138.245 35.0315 138.33 37.3083L138.551 37.2157C138.699 37.1539 138.847 37.0922 138.994 37.0304C139.191 36.9481 139.433 36.9047 139.72 36.9001C139.588 36.0306 139.5 35.2 139.458 34.4082C139.395 33.5673 139.312 32.6771 139.208 31.7378C138.934 29.4244 138.611 27.1315 138.238 24.8592C137.845 22.5377 137.14 19.8844 136.122 16.8992L134.646 17.5167C135.119 18.6484 135.585 19.899 136.042 21.2686C136.528 22.5684 136.823 23.6879 136.927 24.6273ZM144.029 58.5985C144.526 59.3732 145.073 60.1273 145.669 60.8608C146.244 61.545 146.854 62.2436 147.5 62.9566C147.59 63.0344 147.666 63.1471 147.728 63.2947C147.859 63.4709 147.876 63.5796 147.777 63.6208C147.679 63.6619 147.535 63.6642 147.347 63.6275C147.158 63.5909 146.994 63.544 146.854 63.4867C145.955 62.9957 145.175 62.5128 144.514 62.0378C143.902 61.5423 143.174 60.6326 142.331 59.3087C142.006 58.8086 141.644 58.1507 141.245 57.3349C140.895 56.4985 140.58 55.6764 140.3 54.8686C140.02 54.0608 139.816 53.3657 139.688 52.7833C139.609 52.1803 139.668 51.8377 139.865 51.7553C139.914 51.7348 140.015 51.8372 140.167 52.0626C140.368 52.2674 140.565 52.5318 140.759 52.8556C140.931 53.1302 141.09 53.4397 141.234 53.7841C141.407 54.0587 141.514 54.2453 141.555 54.3437C142.003 55.1389 142.406 55.8952 142.764 56.6127C143.171 57.3095 143.593 57.9715 144.029 58.5985ZM124.262 20.4734C124.075 21.1301 123.911 21.7764 123.773 22.4125C123.663 22.9789 123.598 23.5841 123.579 24.2282C123.571 24.3472 123.517 24.4273 123.419 24.4684C123.3 24.4604 123.183 24.2493 123.067 23.8351C122.816 22.9575 122.651 22.2173 122.572 21.6143C122.493 21.0113 122.654 20.2213 123.054 19.2444C123.177 18.8462 123.408 18.4315 123.748 18.0003C124.067 17.5198 124.383 17.0988 124.694 16.7374C125.005 16.3759 125.298 16.1088 125.573 15.9361C125.897 15.7428 126.124 15.7342 126.256 15.9105C126.367 16.0375 126.297 16.3555 126.048 16.8646C125.848 17.3531 125.67 17.6877 125.514 17.8685C124.974 18.7882 124.557 19.6565 124.262 20.4734ZM134.172 51.6221C134.156 51.86 134.078 51.9504 133.939 51.8932C133.869 51.8646 133.766 51.6186 133.63 51.1552C133.539 50.384 133.503 49.6764 133.522 49.0322C133.521 48.3389 133.678 47.6084 133.993 46.8408C134.108 46.5616 134.32 46.2413 134.632 45.8799C134.992 45.4978 135.324 45.1855 135.627 44.943C135.959 44.6307 136.248 44.4231 136.494 44.3202C136.719 44.1681 136.814 44.1864 136.777 44.3752C136.647 44.8923 136.428 45.4752 136.121 46.1238C135.864 46.7519 135.592 47.4149 135.306 48.1127C135.069 48.79 134.821 49.4427 134.564 50.0707C134.356 50.6782 134.225 51.1953 134.172 51.6221Z" fill="url(#paint2_linear_64_33)"/>
</svg>
